<svg viewBox="0 0 2048 1329.1012" xmlns="http://www.w3.org/2000/svg"><path d="M1648.64 459.413v240.23c0 18.842-2.253 20.48-20.48 20.48h-67.38c-17.407 0-19.25-1.843-19.25-18.842V468.015c-.193-13.884-1.675-27.303-4.332-40.293l.236 1.382c-2.7-17.068-16.48-30.222-33.634-31.936l-.158-.013c-5.085-.72-10.96-1.132-16.93-1.132-27.592 0-53.133 8.788-73.975 23.717l.383-.26c-3.686 2.252-5.12 10.444-5.12 15.77V705.17c0 11.264-4.71 15.565-15.77 15.565h-73.728c-14.336 0-18.227-4.096-18.227-18.637V331.002c0-13.107 3.89-17.203 16.998-17.203h66.765c14.13 0 16.384 2.66 16.794 16.588v19.25l15.77-10.034c29.11-19.8 65.036-31.615 103.723-31.615 13.528 0 26.72 1.444 39.427 4.187l-1.224-.222c41.992 6.716 74.614 39.755 80.63 81.402l.06.518c5.1 19.363 8.48 41.826 9.402 64.92l.02.616zM967.885 432.38c2.458 90.726 1.843 181.453 2.458 272.18 0 12.082-4.3 15.973-16.794 16.178h-64.103c-18.227 0-20.48-2.253-20.48-20.48v-7.578c-12.288 6.758-22.528 13.312-33.382 18.637-20.273 10.047-44.145 15.926-69.39 15.926-17.28 0-33.917-2.754-49.495-7.848l1.125.318c-34.09-9.438-59.948-36.935-66.87-71.29l-.1-.594c-3.315-12.937-5.218-27.788-5.218-43.083 0-12.66 1.304-25.014 3.784-36.937l-.203 1.17c7.71-37.39 36.47-66.427 73.097-74.43l.63-.117c28.672-7.928 61.594-12.484 95.58-12.484 6.073 0 12.112.144 18.113.432l-.847-.032c27.238 0 27.238 0 27.238-27.443.285-3.068.447-6.635.447-10.24s-.162-7.172-.48-10.694l.033.454c-2.49-20.457-19.75-36.15-40.677-36.15-1.036 0-2.063.038-3.08.113l.136-.008c-40.96 0-81.92 1.843-122.88 4.096-20.48 1.23-22.733 0-22.733-20.48v-42.803c-.106-.626-.167-1.348-.167-2.083 0-6.356 4.524-11.655 10.528-12.853l.084-.015c63.898-13.517 128-22.938 192.717-6.963 52.36 11.52 90.96 57.522 90.96 112.538 0 .9-.01 1.798-.03 2.693v-.133zM863.437 616.7c-.23-4.28-.36-9.293-.36-14.336s.13-10.055.39-15.033l-.03.698v-36.864c0-3.072-4.506-8.397-6.554-8.397-24.78 0-49.766 1.638-74.342 4.506-14.93 1.927-26.72 13.3-29.256 27.854l-.03.203c-1.894 9.19-2.98 19.754-2.98 30.57 0 4.523.19 9 .562 13.426l-.04-.578c1.43 14.59 12.88 26.108 27.31 27.637l.134.01c5.71.87 12.296 1.368 19 1.368 19.125 0 37.306-4.046 53.732-11.328l-.847.335c7.858-1.697 13.66-8.588 13.66-16.834 0-1.218-.127-2.406-.367-3.553l.02.112zM2027.52 454.908V702.51c0 16.385-2.048 18.228-18.637 18.228h-61.44c-17.818 0-18.842-1.024-20.48-18.227.078-.888.122-1.923.122-2.97s-.044-2.08-.13-3.102l.008.133s0-1.228-2.048-3.07c-2.61.99-4.836 2.09-6.938 3.378l.18-.102c-26.028 18.482-58.14 30.02-92.87 31.325l-.315.01c-4.122.56-8.887.88-13.726.88-58.93 0-106.767-47.5-107.31-106.3v-.053c-.584-6.424-.916-13.896-.916-21.445 0-9.76.556-19.393 1.637-28.865l-.107 1.158c4.674-36.944 31.497-66.527 66.564-75.238l.61-.128c24.574-6.448 53.94-11.584 83.984-14.374l2.237-.168c7.658-.548 16.592-.86 25.6-.86s17.942.31 26.793.926l-1.193-.066c7.578 0 11.264-2.253 10.854-10.24.013-1.11.022-2.42.022-3.732 0-11.237-.603-22.334-1.78-33.258l.12 1.355c-.66-22.107-18.738-39.777-40.944-39.777-1.593 0-3.166.09-4.712.268l.19-.018c-40.96 0-81.92 2.048-122.88 4.3-20.48 1.025-23.348 0-23.348-21.503V341.65c-.058-.518-.09-1.12-.09-1.73 0-8.544 6.46-15.58 14.76-16.49l.075-.006c35.673-8.968 76.624-14.113 118.778-14.113 8.647 0 17.243.217 25.784.645l-1.2-.048c22.06 1.656 42.543 6.027 61.896 12.802l-1.686-.515c42.84 13.594 74.193 50.935 78.808 96.187l.04.48c1.973 10.594 3.298 23.015 3.678 35.674l.01.37zm-104.858 165.478v-32.154-34.406c0-7.782-2.458-11.878-11.06-11.47h-45.26c-49.97 3.687-59.187 22.324-59.802 63.49-.308 1.753-.484 3.773-.484 5.833 0 17.932 13.323 32.753 30.61 35.104l.184.02c5.608.845 12.078 1.327 18.662 1.327 20.928 0 40.718-4.873 58.296-13.55l-.772.346c5.572-1.83 9.524-6.985 9.524-13.064 0-.593-.038-1.177-.11-1.75l.006.068zM570.982 173.103H500.94c-17.203 0-18.842 1.843-18.842 19.25v512c0 14.337 2.458 16.59 16.59 16.795h67.788c20.48 0 23.142-1.843 23.142-22.938V263.42v-71.475c0-15.974-3.072-18.842-19.66-18.842zm670.106 135.578c-31.698 1.173-60.678 11.904-84.385 29.376l.417-.294-11.878 8.397v-12.494c0-16.998-3.277-20.48-20.48-20.48h-64.717c-20.48 0-22.938 3.277-22.938 22.733v362.495c0 17.613 3.89 20.48 20.48 20.48h68.813c18.227 0 20.48-2.662 20.48-21.504V433.2c-.073-.587-.115-1.266-.115-1.954 0-6.992 4.326-12.974 10.448-15.415l.112-.038c23.996-12.9 52.506-20.48 82.788-20.48h.597-.03c10.853 0 16.178-3.686 15.973-15.155V321.79c-.205-9.012-4.915-14.542-15.565-13.108zM117.76 173.104H54.682c-.86-.083-1.86-.13-2.87-.13-17.42 0-31.54 14.12-31.54 31.538 0 1.274.076 2.53.223 3.763l-.014-.15v493.98c0 14.54 2.05 16.383 16.59 16.383h64.102c1.258.187 2.71.294 4.186.294 16.514 0 29.9-13.387 29.9-29.9 0-1.477-.106-2.93-.313-4.348l.02.162V190.92c0-14.335-3.073-17.612-17.204-17.817zm236.544 373.35c-41.754-44.45-98.837-74.072-162.768-80.4l-1.072-.087c-20.48 0-20.48 0-20.48 14.746.43 6.174 1.157 11.79 2.19 17.3l-.142-.916c17.847 120.137 115.545 212.723 236.64 222.557l.928.06c14.336 1.435 16.59 0 15.36-13.516-4.91-62.278-30.91-117.693-70.773-159.87l.117.126zM409.6 174.537c-5.53 0-11.06 0-16.59 1.434-119.693 18.28-211.862 115.556-222.14 236.193l-.067.966c-1.23 15.154 0 15.154 15.36 17.202 25.906-4.993 47.778-10.73 69.088-17.712l-3.96 1.123c103.833-39.526 160.767-116.122 173.874-225.28 1.843-14.54-.614-16.18-15.565-13.926z"/></svg>