<svg viewBox="0 0 2048 1329.1012" xmlns="http://www.w3.org/2000/svg"><path d="M581.837 209.967l-15.565 11.47c-19.907 15.078-36.847 32.735-50.703 52.695l-.498.757c-4.873 7.844-13.443 12.99-23.214 12.99-.768 0-1.528-.033-2.28-.095l.1.007H375.602c-.84-.074-1.815-.116-2.8-.116-12.314 0-23.098 6.547-29.063 16.35l-.085.15c-1.525 2.136-2.44 4.8-2.44 7.68s.914 5.542 2.467 7.72l-.028-.04c4.46 7.886 11.635 13.797 20.23 16.52l.25.068c13.926 4.3 27.648 9.216 40.96 13.517 24.103 9.167 40.92 32.078 40.92 58.917 0 6.15-.882 12.095-2.53 17.714l.113-.444c-5.684 24.897-15.09 46.87-27.735 66.567l.496-.826c-14.41 20.714-34.17 36.787-57.3 46.378l-.863.317c-21.097 8.342-45.51 13.657-71.018 14.73l-.457.015c-75.98 5.325-151.962 0-227.942 2.458h-20.48c5.325-15.565 10.445-30.31 15.565-44.85 3.89-10.855 8.806-21.505 12.288-32.564 1.272-5.894 6.44-10.248 12.628-10.248.17 0 .337.003.505.01h-.024 210.943c7.987-.1 15.658-1.29 22.92-3.43l-.597.152c10.025-2.745 17.322-11.643 17.612-22.29v-.033c.084-.692.13-1.494.13-2.307 0-9.464-6.42-17.43-15.14-19.777l-.144-.033c-8.383-3.91-18.334-7.48-28.643-10.167l-1.257-.278c-16.438-3.766-30.825-10.888-43.014-20.643l.21.163c-11.797-9.23-19.31-23.466-19.31-39.458 0-5.363.846-10.53 2.41-15.372l-.1.354c7.676-34.786 22.898-65.212 43.914-90.68l-.29.363c12.17-13.654 27.718-24.047 45.338-29.893l.74-.213c15.878-5.017 34.138-7.908 53.073-7.908 2.367 0 4.723.045 7.067.135l-.338-.01H581.222zM1346.56 556.49c8.806-23.963 16.794-45.057 24.37-66.15s16.59-47.515 25.19-71.27c5.53-15.156 11.88-29.902 17.614-44.852s10.854-31.334 16.59-46.9c11.058-30.31 22.527-60.415 33.586-90.52 2.867-7.58 5.734-14.95 7.987-22.734 1.083-4.462 5.043-7.723 9.765-7.723.602 0 1.19.054 1.764.156l-.06-.01h126.565c.927-.024 2.02-.038 3.114-.038 21.836 0 42.358 5.63 60.192 15.518l-.637-.324c16.682 9.83 27.7 27.705 27.7 48.153 0 2.518-.168 4.998-.492 7.428l.03-.285c-2.97 52.668-35.446 97.085-81.048 117.212l-.87.343-14.747 7.782c-9.626 5.53-9.01 5.94-4.506 16.384 6.758 16.178 12.698 32.767 18.432 49.356 3.89 10.854 6.757 22.118 9.83 33.382 4.3 15.565 8.396 31.13 12.287 46.694.11.86.174 1.857.174 2.867s-.062 2.005-.185 2.983l.012-.117c-16.385 1.542-35.43 2.422-54.682 2.422s-38.297-.88-57.1-2.6l2.418.178c-5.53-23.142-11.264-46.694-16.794-70.246-2.663-11.264-4.302-22.733-7.374-33.997 0-3.277-4.506-6.144-6.758-9.01-2.662 2.457-6.758 4.505-7.987 7.577-7.986 20.48-15.36 40.96-22.937 61.44-4.71 12.698-9.83 25.19-14.336 38.093-1.19 4.185-4.98 7.198-9.47 7.198-.272 0-.54-.01-.804-.03h.035zm220.365-282.01v1.433c-1.132.066-2.456.104-3.79.104s-2.656-.038-3.97-.112l.182.008c-1.228-.325-2.637-.512-4.09-.512-8.258 0-15.107 6.035-16.377 13.935l-.013.095c-7.168 21.914-16.18 43.008-24.166 64.717-2.457 6.554 0 9.626 6.145 10.445 3.82.74 8.21 1.165 12.702 1.165 35.297 0 64.48-26.186 69.176-60.192l.04-.365c.51-1.7.804-3.656.804-5.68 0-8.653-5.366-16.053-12.953-19.052l-.14-.048c-6.758-2.57-14.696-4.643-22.912-5.86l-.64-.08zm-868.557-73.934c1.91-.102 4.145-.16 6.394-.16 25.264 0 48.822 7.308 68.674 19.925l-.52-.31c12.903 8.192 22.586 20.462 27.312 34.97l.13.462c4.376 12.888 6.902 27.732 6.902 43.167 0 9.068-.872 17.934-2.537 26.517l.14-.872c-5.905 30.04-14.4 56.576-25.535 81.682l.96-2.424c-12.592 32.39-29.686 60.278-50.867 84.5l.282-.328c-12.15 13.61-24.93 26-38.546 37.422l-.57.466c-15.9 11.785-34.435 21.166-54.446 27.122l-1.26.322c-13.75 4.096-29.617 6.682-46.012 7.162l-.272.005c-4.11.464-8.876.73-13.703.73-22.765 0-44.155-5.887-62.73-16.22l.658.335c-24.696-14.82-40.968-41.454-40.968-71.89 0-.43.003-.86.01-1.288v.065c-.05-1.712-.076-3.727-.076-5.75 0-26.66 4.757-52.21 13.468-75.848l-.49 1.52c13.996-42.696 34.51-79.672 60.707-111.835l-.495.628c25.215-32.55 59.226-57.173 98.473-70.43l1.47-.43c13.5-5.986 29.244-9.47 45.803-9.47 2.692 0 5.362.09 8.008.272l-.357-.02zm-92.16 284.672c8.668-1.973 16.123-4.366 23.29-7.315l-.967.352c15.76-8.573 27.974-21.977 34.83-38.198l.192-.51c12.288-25.804 23.962-52.428 32.768-79.257 4.54-13.816 8.27-30.23 10.496-47.115l.153-1.423c.233-1.43.367-3.077.367-4.756 0-17.08-13.846-30.925-30.925-30.925-4.584 0-8.936 1-12.85 2.788l.194-.08c-19.49 8.23-35.34 21.902-46.042 39.108l-.243.42c-12.627 19.15-23.446 41.168-31.35 64.528l-.597 2.03c-7.153 19.015-12.685 41.227-15.615 64.25l-.155 1.492c-.133 1.07-.21 2.308-.21 3.565 0 11.932 6.85 22.264 16.828 27.28l.176.08c5.697 1.732 12.382 3.036 19.264 3.658l.396.03zm786.432-185.55c-.663 32.584-8.142 63.26-21.06 90.88l.58-1.382c-9.89 25.674-20.904 47.595-33.752 68.258l.984-1.698c-20.42 35.612-49.344 64.274-84.088 83.805l-1.11.574c-18.72 10.3-40.6 17.54-63.837 20.392l-.88.088c-8.396 1.172-18.097 1.84-27.954 1.84s-19.56-.668-29.06-1.963l1.105.124c-37.19-4.148-66.723-32.358-72.84-68.53l-.07-.487c-1.695-9.35-2.665-20.108-2.665-31.094 0-19.312 2.997-37.924 8.55-55.396l-.355 1.294c10.773-39.52 27.2-74.106 48.65-104.936l-.727 1.104c23.67-35.366 55.47-63.555 92.822-82.313l1.387-.63c23.488-12.16 51.274-19.287 80.724-19.287 6.842 0 13.594.385 20.236 1.134l-.814-.075c14.515 1.7 27.737 5.677 39.844 11.584l-.727-.32c26.814 12.433 45.077 39.12 45.077 70.075 0 .637-.008 1.272-.023 1.905l.002-.094v15.155zm-235.11 147.457c-.123 2.263-.193 4.912-.193 7.578s.07 5.314.21 7.945l-.016-.368c1.933 9.98 9.314 17.84 18.864 20.437l.184.043c3.755.866 8.067 1.363 12.495 1.363 17.362 0 32.942-7.634 43.564-19.73l.056-.065c14.335-17.496 26-37.87 33.958-60.012l.45-1.428c9.42-23.757 16.588-48.538 23.96-73.114 2.18-7.898 3.582-17.028 3.887-26.434l.005-.19c.004-.164.006-.357.006-.55 0-9.436-5.455-17.598-13.383-21.506l-.14-.063c-5.544-2.986-12.132-4.74-19.13-4.74-10.535 0-20.14 3.975-27.397 10.508l.037-.033c-18.738 13.01-33.313 30.81-42.102 51.65l-.292.78c-9.01 19.045-16.588 38.91-23.96 58.572-6.61 14.5-10.638 31.405-11.057 49.204l-.003.153zm14.13-239.82c-12.082 9.216-21.913 15.565-30.31 23.552-15.36 14.54-30.514 29.49-44.85 45.056-6.056 7.44-15.214 12.155-25.473 12.155-.765 0-1.525-.026-2.277-.078l.102.006H979.15c-.664-.06-1.436-.096-2.217-.096-10.937 0-20.272 6.858-23.94 16.51l-.058.175c-3.78 8.33-7.284 18.285-9.95 28.577l-.29 1.324c-2.867 11.264 0 14.746 11.878 14.95h76.186l-23.348 66.355H926.31c-13.106 0-14.13 0-18.636 13.108l-36.25 99.533c-1.23 3.278-3.482 6.145-4.71 9.422-6.144 17.818-6.144 17.818-25.19 17.818H757.76c4.916-14.746 9.627-29.286 14.95-43.827s12.7-33.792 18.843-50.79c8.806-23.552 17.613-47.104 26.214-70.656 5.53-15.155 10.24-30.515 15.974-45.67 9.217-24.576 17.41-49.562 28.468-73.114 15.25-35.138 48.178-59.995 87.254-63.46l.4-.028c11.274-1.345 24.43-2.16 37.76-2.252h168.884c4.096.41 7.987 1.023 15.155 1.433zm528.18 345.702c5.94-16.59 11.878-32.563 17.613-48.538 8.602-24.167 16.998-48.334 25.6-72.5 5.12-14.13 10.445-28.262 15.77-42.394l25.805-69.222c2.048-5.734 4.506-11.264 6.554-16.794 4.3-12.288 2.048-15.974-10.854-16.18s-24.37 0-36.454 0c-5.53 0-10.24 0-10.65-7.78.002-.236.003-.514.003-.793 0-28.348-12.125-53.864-31.472-71.644l-.07-.064h343.04c.17 1.443.266 3.116.266 4.812s-.096 3.37-.284 5.014l.02-.2q-10.446 29.285-20.48 58.367c-3.892 10.24-6.76 12.288-18.023 12.288h-106.906c-5.24.044-9.622 3.658-10.838 8.525l-.017.078c-11.264 30.72-23.142 61.44-34.202 91.955s-20.48 58.982-30.514 88.064c-8.602 23.757-18.022 47.104-26.83 70.656-1.842 5.12-4.095 9.216-10.444 9.01h-81.92s-1.843-.613-4.71-2.66zM871.424 776.034c5.325-6.963 9.626-11.674 12.902-16.998 20.48-33.792 40.96-67.79 61.44-102.4 4.72-8.307 13.508-13.82 23.584-13.82 2.99 0 5.867.486 8.556 1.383l-.19-.056c2.886.54 5.042 3.04 5.042 6.045 0 1.343-.432 2.587-1.164 3.598l.012-.018c-2.867 5.94-6.35 11.47-9.83 16.998l-83.15 132.3c-7.4 11.396-20.063 18.826-34.463 18.826-5.205 0-10.183-.97-14.763-2.74l.28.094c-4.38-1.14-7.564-5.062-7.564-9.726 0-.69.07-1.362.202-2.012l-.01.065c1.842-15.565 3.685-31.13 5.324-46.9s2.867-31.13 4.3-47.103c-.692-.196-1.488-.31-2.31-.31-3.646 0-6.774 2.215-8.112 5.372l-.022.058-49.766 83.354c-7.055 11.706-19.7 19.414-34.143 19.414-5.103 0-9.98-.962-14.46-2.713l.27.093c-3.328-1.973-5.768-5.146-6.737-8.91l-.022-.1c-.356-2.033-.56-4.372-.56-6.76s.204-4.726.596-7l-.035.242c2.663-25.19 5.53-50.38 8.193-75.366 2.048-20.48 3.89-40.96 6.144-60.416 1.638-14.336 4.506-16.794 20.48-16.998 20.48 0 20.48 0 17.613 21.71-3.072 17.407-4.915 35.02-7.373 52.633s-4.71 34.816-6.963 52.43c7.578 0 9.83-5.12 12.902-10.036q30.72-51.406 61.44-102.4c6.1-9.133 16.367-15.067 28.02-15.067 4.052 0 7.937.718 11.535 2.033l-.232-.075c2.743 1.717 4.615 4.606 4.912 7.948l.003.04c0 10.65-1.434 20.48-2.867 31.744-3.482 28.058-7.373 56.115-11.06 84.173.414 2.758 1.13 5.24 2.125 7.573l-.075-.2zm790.323-16.384c2.82-3.004 5.33-6.36 7.436-9.978l.14-.262c10.446-29.49 20.48-59.187 30.926-88.678 5.938-16.998 16.997-20.48 35.225-11.878-.832 5.498-1.903 10.27-3.27 14.916l.198-.785c-7.373 20.48-14.95 40.96-22.733 62.67s-17.613 47.308-26.42 71.065c-1.844 5.395-3.92 9.995-6.366 14.36l.223-.434c-1.638 2.867-4.71 6.758-7.373 6.963-3.088.18-6.7.28-10.334.28-8.414 0-16.7-.548-24.824-1.613l.956.102c-6.35 0-6.35-8.398-7.168-13.927-3.072-19.046-6.144-37.888-9.01-56.934-2.05-13.518-3.687-27.035-5.735-40.96-.907-3.686-1.96-6.826-3.233-9.85l.16.428c-5.283 5.98-9.202 13.29-11.19 21.36l-.074.35c-10.65 29.49-20.48 58.98-31.95 88.268-2.2 9.118-10.288 15.786-19.934 15.786-1.06 0-2.1-.08-3.118-.236l.114.014c-9.83 0-12.902-3.686-9.83-13.312 5.53-17.203 11.878-34.202 18.227-51.405 10.65-29.49 21.504-58.778 32.154-88.27 3.072-8.6 5.53-17.817 14.95-20.48 5.327-2.024 11.487-3.196 17.92-3.196s12.593 1.173 18.277 3.316l-.357-.118c2.972 1.677 5.178 4.417 6.122 7.69l.02.092c2.205 6.206 4.126 13.65 5.418 21.307l.113.81c3.483 22.94 6.555 46.08 10.036 69.02 1.308 5.337 2.78 9.844 4.547 14.202l-.246-.686zM346.93 725.04c1.843 2.317 3.72 4.388 5.72 6.333l.015.015c6.353 4.955 10.4 12.61 10.4 21.21 0 4.2-.966 8.177-2.687 11.717l.07-.16c-8.535 27.073-31.34 47.21-59.37 51.758l-.43.058c-11.27 1.59-24.29 2.497-37.52 2.497-1.643 0-3.28-.014-4.916-.042l.246.003h-30.31s-12.493-4.096-9.01-13.722c6.143-17.613 12.287-35.226 18.636-52.634 11.06-30.31 22.528-61.44 33.792-90.522 5.12-13.722 9.216-17.203 23.347-16.998 18.227 0 36.25 1.23 54.477 1.843.858-.09 1.854-.143 2.862-.143 10.11 0 18.998 5.233 24.103 13.138l.068.113c2.446 4.903 3.877 10.68 3.877 16.79 0 7.857-2.365 15.16-6.422 21.238l.088-.14c-5.23 7.013-10.878 13.18-17.084 18.738l-.12.105c-2.866 2.867-5.938 5.325-9.83 8.806zm-56.524 17.612c-3.277 1.23-12.083 1.638-14.13 5.53-5.165 10.27-9.78 22.317-13.195 34.86l-.322 1.39c-.282.705-.446 1.52-.446 2.376 0 3.62 2.934 6.554 6.554 6.554.448 0 .885-.045 1.307-.13l-.042.007c11.636-.28 22.732-2.13 33.23-5.35l-.87.23c10.363-3.634 18.118-12.27 20.442-22.936l.038-.207c.734-1.693 1.16-3.664 1.16-5.735 0-8.144-6.6-14.746-14.745-14.746h-.144.008c-5.325-.818-10.445-.818-18.637-1.842zm-2.457-29.49c4.565 1.91 9.87 3.02 15.435 3.02 16.754 0 31.158-10.06 37.504-24.467l.102-.262c.267-1.108.42-2.38.42-3.686s-.153-2.58-.442-3.798l.022.11c-2.253-14.13-15.155-10.854-23.962-13.722-1.522-.657-3.295-1.04-5.156-1.04-5.665 0-10.503 3.54-12.426 8.527l-.03.09c-3.687 11.675-7.374 23.758-11.265 35.43zm1567.333 33.38h-17.818l-16.794-1.637c2.02-7.095 4.46-13.212 7.438-19.008l-.27.576c2.324-3.004 5.816-5.007 9.783-5.322l.05-.002h51.61c7.167 0 9.625 3.482 8.6 11.06-.774 4.935-1.987 9.346-3.63 13.54l.15-.434c-6.144 16.998-13.107 33.997-18.842 51.2-2.182 9.984-9.654 17.797-19.266 20.436l-.19.044c-15.14 3.753-32.995 6.52-51.274 7.732l-.95.05c-.29.003-.63.005-.973.005-11.878 0-23.228-2.256-33.646-6.364l.62.216c-16.19-4.982-27.96-19.31-29.074-36.538l-.006-.12c-.407-3.568-.64-7.702-.64-11.89 0-22.548 6.736-43.523 18.304-61.023l-.257.414c14.316-26.572 37.005-47.077 64.48-58.266l.85-.307c13.882-6.114 30.066-9.673 47.08-9.673 12.884 0 25.29 2.04 36.914 5.815l-.844-.237c9.06 1.68 15.83 9.522 15.83 18.945 0 6.69-3.413 12.582-8.59 16.032l-.07.044c-1.6.707-3.466 1.12-5.428 1.12s-3.827-.413-5.515-1.154l.088.034c-7.577-2.458-14.745-6.554-22.322-9.216-5.797-1.81-12.462-2.853-19.37-2.853-17.6 0-33.62 6.77-45.596 17.845l.045-.04c-20.16 16.397-33.89 40.026-37.223 66.88l-.05.498c-.036.597-.056 1.295-.056 1.998 0 14.234 8.298 26.53 20.32 32.315l.216.093c5.397 2.606 11.737 4.128 18.432 4.128s13.035-1.523 18.69-4.24l-.258.112c2.042-.635 3.773-1.77 5.11-3.266l.01-.01c7.214-11.296 12.28-24.66 14.277-39.007l.06-.52zM632.423 643.325c13.516 1.23 27.237 2.253 40.96 3.89 14.574.455 26.217 12.38 26.217 27.022 0 2.036-.225 4.02-.652 5.927l.034-.18c-2.472 22.086-15.704 40.613-34.258 50.415l-.354.17c-2.662 1.638-5.734 2.253-8.192 4.096-2.75 1.3-4.62 4.054-4.62 7.242 0 1.652.502 3.186 1.36 4.46l-.017-.028c5.85 14.49 9.242 31.292 9.242 48.887 0 5.29-.307 10.506-.903 15.635l.058-.624c.013.177.02.383.02.59 0 1.932-.622 3.718-1.676 5.17l.018-.025c-7.168 7.783-16.794 5.94-25.6 5.12s-11.06-6.553-11.47-13.925c0-13.722-1.637-27.238-2.252-40.96-.01-8.003-5.42-14.74-12.78-16.765l-.122-.03c-9.216-3.276-13.926-1.637-18.022 7.374s-8.602 21.504-12.698 32.358c-2.867 7.578-5.12 15.36-8.397 22.733-4.653 5.95-11.832 9.738-19.895 9.738-4.502 0-8.728-1.18-12.385-3.25l.125.065c-1.86-1.623-3.03-3.998-3.03-6.646 0-1.625.44-3.148 1.21-4.454l-.023.04c6.554-17.612 12.698-35.225 19.046-52.837 10.65-29.49 20.48-58.98 31.95-88.268 7.78-20.48 10.444-21.71 29.49-21.914h18.227zm5.53 28.877c-18.023 0-20.48 1.64-25.396 15.36l-6.758 18.433c-4.71 12.902 0 17.613 13.516 15.36l10.445-1.638c12.758-2.734 23.007-11.495 27.76-23.09l.094-.258c.92-1.998 1.457-4.336 1.457-6.8 0-8.156-5.886-14.938-13.644-16.327l-.1-.015c-2.12-.554-4.576-.922-7.102-1.022l-.067-.002zm766.36 152.167c-9.672-1.287-18.2-3.08-26.49-5.436l1.3.317c-15.513-3.996-26.79-17.862-26.79-34.36 0-4.43.812-8.67 2.296-12.578l-.082.242c6.144-20.48 13.722-42.19 20.48-63.283 5.734-16.795 12.288-33.18 18.227-49.767 3.387-9.79 12.526-16.693 23.277-16.693 3.98 0 7.74.946 11.065 2.626l-.14-.064c4.505 2.253 4.71 5.734 3.07 10.24-6.757 18.432-13.31 37.07-20.48 55.5-5.53 15.156-11.263 30.31-16.178 45.67-3.073 9.627-5.94 20.48 3.07 28.468 5.513 4.828 12.78 7.774 20.736 7.774 3.8 0 7.445-.672 10.82-1.905l-.22.07c16.585-4.643 29.71-16.557 35.916-31.996l.13-.364c8.19-17.818 14.13-36.66 20.48-55.296s11.058-31.334 17.202-46.9c4.574-8.26 13.24-13.762 23.19-13.762 4.073 0 7.93.922 11.375 2.568l-.16-.07c1.29 1.673 2.07 3.797 2.07 6.104 0 1.037-.158 2.038-.45 2.98l.018-.072c-10.035 28.058-20.48 55.91-30.925 83.763-6.097 16.33-12.99 30.305-21.09 43.457l.61-1.064c-17.877 26.576-47.838 43.828-81.83 43.828h-.527.027zM225.28 649.263c-6.554 18.432-12.493 35.43-18.842 52.634s-13.926 38.093-22.118 55.91c-8.633 23.912-25.913 42.922-47.974 53.616l-.564.246c-12.96 6.993-28.364 11.103-44.73 11.103-11.957 0-23.403-2.195-33.955-6.203l.657.22c-12.065-4.542-20.493-15.987-20.493-29.4 0-.32.006-.64.015-.958v.047c-.033-.863-.05-1.876-.05-2.894 0-11.204 2.2-21.895 6.19-31.664l-.202.56c12.083-31.54 23.757-63.49 34.61-95.438 1.698-7.858 8.59-13.66 16.835-13.66.78 0 1.548.052 2.3.152l-.088-.01h5.53c12.698 0 14.746 2.867 10.65 14.336-10.24 28.467-20.48 56.934-31.13 85.402-2.618 6.853-4.566 14.824-5.49 23.105l-.04.446c-.86 2.177-1.36 4.7-1.36 7.337 0 11.31 9.17 20.48 20.48 20.48 2.47 0 4.84-.437 7.032-1.24l-.142.046c.213.002.464.004.715.004 18.532 0 34.554-10.75 42.17-26.352l.122-.277c10.035-22.528 18.637-45.67 27.443-68.608 5.53-14.54 10.24-29.49 15.565-44.032 1.08-2.845 3.098-5.128 5.67-6.52l.065-.033c4.114-2.183 8.994-3.465 14.173-3.465 6.315 0 12.186 1.906 17.067 5.174l-.11-.07zm1107.354 31.334c-7.168-3.277-13.312-6.554-20.48-9.216-3.726-1.687-8.08-2.67-12.662-2.67-9.837 0-18.616 4.532-24.36 11.624l-.047.06c-3.53 2.95-5.76 7.355-5.76 12.28 0 5.808 3.1 10.892 7.736 13.688l.073.04c6.554 4.71 13.722 8.397 20.48 12.493 12.07 5.82 20.25 17.962 20.25 32.013 0 4.007-.666 7.858-1.892 11.45l.075-.25c-5.152 21.838-19.727 39.506-39.093 48.76l-.433.188c-12.505 7.644-27.636 12.17-43.825 12.17-10.514 0-20.582-1.91-29.876-5.4l.585.194c-8.82-1.78-15.37-9.47-15.37-18.688 0-6.374 3.132-12.017 7.94-15.475l.058-.04c1.684-1.393 3.867-2.24 6.246-2.24s4.56.847 6.262 2.254l-.016-.012c4.957 2.998 10.753 5.885 16.786 8.308l.827.293c4.004 1.436 8.624 2.267 13.438 2.267 13.893 0 26.17-6.917 33.577-17.496l.088-.13c6.554-9.627 6.144-14.747-2.048-22.53-2.21-1.81-4.694-3.443-7.342-4.804l-.236-.11-9.216-5.12c-35.02-18.637-30.105-48.333-13.925-70.042 15.09-20.21 38.946-33.156 65.825-33.156 9.35 0 18.335 1.567 26.706 4.452l-.576-.173c12.288 3.89 13.312 6.35 10.445 18.637-.488 7.015-4.44 13.01-10.142 16.332l-.098.052zm-823.296 36.25c2.253 17.408-5.734 27.648-20.48 27.648h-30.31c-10.854 0-14.54 2.253-17.818 12.698-5.256 10.1-9.01 21.86-10.595 34.294l-.054.522c20.48 3.685 39.323 0 58.164 2.047 4.506 15.974 0 24.37-14.746 24.576h-75.98c-12.494 0-14.747-4.3-10.446-16.384 11.47-31.745 22.938-63.694 34.406-95.438 5.94-16.18 12.493-31.95 18.432-48.128 2.356-8.16 9.757-14.026 18.528-14.026.687 0 1.366.036 2.035.106l-.083-.007h75.98c9.83 0 11.675 3.482 8.398 12.288-5.325 14.13-6.963 15.36-22.323 15.36h-33.587c-17.408 0-17.613 0-23.962 16.794-2.867 7.372-4.71 15.154-7.578 24.165 18.022 3.482 34.202 0 52.02 3.482zm559.923 78.848c-5.938 22.323-6.757 23.552-24.78 23.552h-67.174c-14.54 0-17.203-3.89-12.288-17.613 12.083-33.587 24.78-67.174 37.07-100.762q7.78-20.48 15.36-42.803c2.264-7.293 8.95-12.497 16.852-12.497.123 0 .246 0 .368.004h-.018 84.582c4.506 16.59-2.867 27.238-18.022 27.648s-27.443 0-40.96 0c-.822-.168-1.768-.263-2.735-.263-6.924 0-12.7 4.908-14.042 11.435l-.016.093c-2.662 9.626-6.554 18.842-10.65 30.106 7.168 0 12.083 1.23 16.998 1.434h27.443s12.288 5.325 8.397 14.13c-2.97 8.684-11.062 14.816-20.585 14.816-.612 0-1.218-.025-1.816-.075l.078.006h-30.31c-.603-.092-1.298-.145-2.006-.145-6.283 0-11.594 4.162-13.33 9.878l-.025.1c-3.07 9.01-6.348 18.226-9.215 27.237s-1.23 12.698 9.42 13.107 24.372 0 36.455 0c.512-.007 1.117-.01 1.723-.01 4.658 0 9.262.226 13.803.67l-.576-.046zm117.35-151.142h7.58l.153-.002c3.733 0 6.758 3.027 6.758 6.76 0 .508-.055 1.003-.162 1.48l.008-.046c-.665 4.386-1.736 8.316-3.202 12.05l.13-.377q-16.998 47.104-33.997 94.003-9.42 25.6-19.456 50.79c-4.23 7.377-12.06 12.266-21.032 12.266-3.504 0-6.834-.746-9.84-2.088l.153.06c-2.988-1.823-4.953-5.067-4.953-8.77 0-1.654.392-3.217 1.09-4.6l-.028.06q4.3-13.723 9.42-27.24c10.65-28.26 20.48-56.524 31.95-84.786 4.3-11.264 7.577-22.938 12.082-34.202 5.94-15.155 7.373-15.77 23.347-15.36zM155.444 599.497c-1.843 26.01-15.565 35.43-36.454 23.552 1.433-23.348 12.492-30.926 36.453-23.553zm46.08-3.072c12.288 0 16.384 6.35 11.264 17.408-4.11 8.66-12.782 14.54-22.83 14.54h-.114.006c-.246.02-.532.033-.82.033-5.882 0-10.65-4.768-10.65-10.65 0-.736.075-1.454.217-2.148l-.012.07c1.256-10.906 10.435-19.295 21.574-19.295.48 0 .955.016 1.427.046l-.064-.004z"/></svg>